/* XPM */
static char *f897dfc0c55e4b54b53acbcf6563d9bd4b0mdMyffyYTpEfg[] = {
/* columns rows colors chars-per-pixel */
"64 64 233 2 ",
"   c #040202",
".  c #090505",
"X  c #0C0806",
"o  c #050309",
"O  c #0A060A",
"+  c #0C0A0B",
"@  c #130C05",
"#  c #120E0D",
"$  c #1B1407",
"%  c #14110D",
"&  c #0B0B12",
"*  c #120E11",
"=  c #151313",
"-  c #1A1716",
";  c #1C1B1B",
":  c #241C0A",
">  c #231C16",
",  c #201E1D",
"<  c #2E260A",
"1  c #342A0A",
"2  c #342B0B",
"3  c #3C3308",
"4  c #3D360C",
"5  c #27231C",
"6  c #352C17",
"7  c #3D3517",
"8  c #1E1B21",
"9  c #221E22",
"0  c #242322",
"q  c #292625",
"w  c #282828",
"e  c #2D2B2B",
"r  c #322E29",
"t  c #32322E",
"y  c #302E32",
"u  c #343333",
"i  c #393737",
"p  c #3C3B3C",
"a  c #433A07",
"s  c #41360A",
"d  c #433A0A",
"f  c #443816",
"g  c #503F1D",
"h  c #423D30",
"j  c #4C440C",
"k  c #53470B",
"l  c #554A0D",
"z  c #5B4D0D",
"x  c #555009",
"c  c #5D520D",
"v  c #4B4416",
"b  c #554815",
"n  c #5F5213",
"m  c #65580C",
"M  c #65590D",
"N  c #695715",
"B  c #665814",
"V  c #735D17",
"C  c #73650C",
"Z  c #766A0D",
"A  c #796A0C",
"S  c #766719",
"D  c #534A32",
"F  c #68592A",
"G  c #756827",
"H  c #756935",
"J  c #3E3D40",
"K  c #3E4040",
"L  c #444342",
"P  c #494847",
"I  c #4C4B4B",
"U  c #514E4E",
"Y  c #525251",
"T  c #555353",
"R  c #595554",
"E  c #5A5957",
"W  c #585659",
"Q  c #5C5A59",
"!  c #605A45",
"~  c #615E5C",
"^  c #5D615D",
"/  c #746B4A",
"(  c #61615C",
")  c #5F5E62",
"_  c #615F61",
"`  c #646363",
"'  c #696767",
"]  c #6D6C6A",
"[  c #726E6A",
"{  c #716F6F",
"}  c #757372",
"|  c #797677",
" . c #7C7B7A",
".. c #836F0D",
"X. c #85740B",
"o. c #87780D",
"O. c #8C7B0C",
"+. c #887116",
"@. c #897616",
"#. c #89752F",
"$. c #80765F",
"%. c #817D7C",
"&. c #7E807E",
"*. c #97870C",
"=. c #998518",
"-. c #A48E0C",
";. c #A8940D",
":. c #B39E0B",
">. c #AB9717",
",. c #B69A19",
"<. c #BBA70B",
"1. c #BBA71A",
"2. c #988927",
"3. c #AF9728",
"4. c #BCAA2E",
"5. c #C3A70F",
"6. c #C4AD0C",
"7. c #CBB20D",
"8. c #CAB60C",
"9. c #D4BB0C",
"0. c #C8AB16",
"q. c #D4A71F",
"w. c #C8B213",
"e. c #D8B819",
"r. c #E4BD1D",
"t. c #CAA721",
"y. c #DCB625",
"u. c #DBB537",
"i. c #E2BC27",
"p. c #DCC50C",
"a. c #DEC412",
"s. c #E3C40E",
"d. c #E9C20F",
"f. c #E4CA0D",
"g. c #ECCC0C",
"h. c #EFCD0D",
"j. c #ECD20C",
"k. c #FBD605",
"l. c #FEDD03",
"z. c #F4D50C",
"x. c #F5D90C",
"c. c #F9D809",
"v. c #FCDC09",
"b. c #E5C513",
"n. c #E5CB11",
"m. c #EBCB12",
"M. c #E8C519",
"N. c #ECCC1C",
"B. c #F1CE14",
"V. c #F3D213",
"C. c #FDD814",
"Z. c #FCE005",
"A. c #EAC826",
"S. c #F0CF28",
"D. c #E6C938",
"F. c #F0D239",
"G. c #94894F",
"H. c #858379",
"J. c #9A9276",
"K. c #DAB847",
"L. c #D7B454",
"P. c #DCBD69",
"I. c #DEC244",
"U. c #E7CA49",
"Y. c #EACD4F",
"T. c #ECD55C",
"R. c #E6CE66",
"E. c #EBD461",
"W. c #E1CB7F",
"Q. c #EDDA7C",
"!. c #7D7E82",
"~. c #848382",
"^. c #888785",
"/. c #898887",
"(. c #8D8C8B",
"). c #918E8A",
"_. c #93918E",
"`. c #94988F",
"'. c #8F9194",
"]. c #959393",
"[. c #9A9795",
"{. c #9D9C9B",
"}. c #A19F9C",
"|. c #9FA29E",
" X c #B5AA89",
".X c #A2A19F",
"XX c #A9A298",
"oX c #A4A3A2",
"OX c #A8A7A5",
"+X c #AAA9A6",
"@X c #ADACAA",
"#X c #B1AEAD",
"$X c #B2B2AE",
"%X c #AEB0B2",
"&X c #B5B3B2",
"*X c #B9B9B6",
"=X c #BCBBBA",
"-X c #C1BFBD",
";X c #DDC98A",
":X c #DEC996",
">X c #E1CA86",
",X c #EAD785",
"<X c #EAD698",
"1X c #EAD79A",
"2X c #EEE196",
"3X c #C8C5B9",
"4X c #E9D9A8",
"5X c #E7DBB4",
"6X c #EFE4AD",
"7X c #C1BFC0",
"8X c #C5C4C2",
"9X c #C9C7C6",
"0X c #CCCBC9",
"qX c #D1CECC",
"wX c #D5D3D2",
"eX c #DAD8D6",
"rX c #DDDCDB",
"tX c #E1DEDC",
"yX c #E0DFDD",
"uX c #F3EACA",
"iX c #E2E1DD",
"pX c #F3ECD9",
"aX c #F6F2D7",
"sX c #E6E4E2",
"dX c #E8E5E4",
"fX c #EAEAE7",
"gX c #ECECEA",
"hX c #F6F3E6",
"jX c #FAF6EB",
"kX c #F6F5F5",
"lX c #FBFCF4",
"zX c #FEFEFD",
"xX c white",
/* pixels */
"xXxXxXxXxXxXxXxXxXxXxXxXxXxXxXxXxXzXzXzXzXzXzXzXhX5X;XP.K.u.y.q.y.y.u.I.R.,X6XaXlXlXxXlXxXxXxXxXxXxXxXxXxXxXxXxXxXxXxXxXxXxXxXxX",
"xXxXxXxXxXxXxXxXxXxXxXxXxXxXxXxXxXxXzXzXkXuX;XK.e.d.w.-.o.C m z z n C o.;.8.j.N.D.Q.uXzXzXxXxXxXxXxXxXxXxXxXxXxXxXxXxXxXxXxXxXxX",
"xXxXxXxXxXxXxXxXxXxXxXxXxXxXxXxXxXxXjX1XK.a.w.o.d X . o . 0               . + 4 X.0.h.D.<XhXxXxXxXzXxXxXxXxXxXxXxXxXxXxXxXxXxXxX",
"xXxXxXxXxXxXxXxXxXxXxXxXxXxXxXxXjX:Xy.b.*.1 o + w p `   L (.  & u . X X         . . < o.f.A.,XhXzXzXzXxXxXxXxXxXxXxXxXxXxXxXxXxX",
"xXxXxXxXxXxXxXxXxXxXzXzXxXxXlX4XA.M.Z =   I |.0X{ X $XL .Xq   OX .~.] +X.X.   + eX{.w o @ Z M.A.1XlXzXxXxXxXxXxXxXxXxXxXxXxXxXxX",
"xXxXxXxXxXxXxXxXxXxXxXzXxXaXY.g.o.$ + e X ] T {..   = =X$X  . oXo OX(.(.&X+   U ~.t 9X=   + % o.b.U.aXxXzXxXxXxXxXxXxXxXxXxXxXxX",
"xXxXxXxXxXxXxXxXzXzXxXzX6XA.w.1 + ^ 3X|.|.  o 9XX     P /.    _.oX` {.L  .    +Xw   &.P w eX( o < 6.A.4XlXzXzXzXxXxXxXxXxXxXxXxX",
"xXxXxXxXxXxXxXxXxXxXlX,Xh.O.+   J 9X+ X 9X    /.P     ; @X      X   * O h   = 3X    $Xw +XL  .&X& O X.M.>XlXzXzXxXxXxXxXxXxXxXxX",
"xXxXxXxXxXxXzXzXzXjXR.b.n o ] y   @XE &X=X.   u {.    X y     .         .   W 8XR ~..XP tX].X $   . . l e.P.lXzXxXxXxXxXxXxXxXxX",
"xXxXxXxXxXxXzXzXlXR.d.d + {./..   t iXw H.=X; o w .   X < j m C C M j 1 @   . w ' Q # 8X, p         ; + 3 p.R.lXxXxXzXzXxXxXxXxX",
"xXxXxXxXxXxXxXlXR.d.s o Q $X+ I     .Xp   w . o < Z <.z.Z.v.l.v.l.l.Z.l.z.6.A 1 . . q 8X' X     = %.rX^   3 b.R.lXxXzXzXxXxXxXxX",
"xXxXxXxXxXxXxX,Xs.d o . . oX0XQ   e e W   . k <.x.l.l.l.Z.Z.v.l.l.l.l.c.l.l.l.c.6.c X + | +X+ ` 8XT %X=   X 4 m.Q.zXzXzXxXxXxXxX",
"xXxXxXxXxXxX5Xd.z + ].-X0 # -Xt R =X; . d 8.l.l.Z.Z.l.Z.Z.l.l.l.k.l.k.k.l.k.l.l.v.v.9.b . + (. .*X^ .X  , *X+ l B.2XzXxXxXxXxXxX",
"xXxXxXxXxXhXi.o.O ].R I #X' 0 wX{.+ # *.x.v.v.f.x.l.Z.l.Z.l.l.l.k.l.l.k.k.k.k.l.c.l.l.k.>.$ o   = qXK     ].|.. @.S.aXxXxXxXxXxX",
"zXzXxXzXkXL.7.. 9 qXq @XU ].` 9 . < 9.l.Z.Z.z.t J.4.p.v.Z.Z.l.l.l.c.l.l.l.l.l.l.l.v.l.l.l.f.3   + 8X  X H.oX/.' + 5.Y.lXlXxXxXxX",
"xXzXzXzX4Xr.1 # . q wX|    .W o d n.l.l.Z.Z.z.b  XgX) 2.x.Z.x.l.l.l.k.l.l.l.l.l.l.l.k.l.l.v.x.k o 0 % OX&.o . - - < j.1XzXxXxXxX",
"xXxXzXjXu.O.o %._.% ; &X~.}.o d m.l.l.j.7.f.v.V.M.[ gXrXJ.H *.e.l.l.l.k.l.l.l.l.l.l.l.l.l.l.Z.x.z   } W .   w &X} o X.N.jXlXxXxX",
"xXxXzX:Xe.@   . E 9XI # H.+ < h.v.l.l.f.*.+.@.S 7 ] kXxXxX0X{ 5 b 9.k.k.l.l.l.l.l.l.k.l.l.l.l.l.z.4 .   - (.gXp     $ n.,XxXxXxX",
"zXxXjXy.A         = }.[.o * 8.v.l.l.l.l.l.l.C.*.F #.@.#.H H (.*X~.- >.k.l.l.l.l.l.l.l.l.l.l.l.Z.Z.p.$ X *XT Q /.  p = C V.hXxXxX",
"zXlX<Xb.%           . 9 . *.l.v.l.v.Z.l.Z.l.l.9.M.v.Z.l.Z.l.b.2.XXI I ,.l.l.l.l.l.l.l.l.l.l.l.l.Z.c.<.  o   . =XOX+X- @ m.2XzXxX",
"xXlXD.*.+ ` #     & #X. s x.l.l.Z.l.Z.l.l.l.Z.l.k.l.l.l.l.l.l.x.w._.w 6 b.l.l.l.l.l.l.l.l.l.l.l.l.l.l.x   &  .-XL       O.F.lXzX",
"zXuXM.1 + [ 8X%.; { ` . 6.v.l.l.Z.l.l.l.l.l.Z.k.c.l.l.l.l.l.k.x.c.2.=Xu V x.l.l.l.l.l.l.l.l.l.l.Z.l.l.p.X P '           < V.uXzX",
"lX,X7..     . R 3XwXO j v.l.l.l.l.Z.l.Z.l.v.Z.l.v.l.l.k.l.l.k.l.l.p.%.(.D A.l.l.l.v.l.l.l.l.l.l.l.l.Z.l.M                 6.Q.lX",
"kXU.X.        . O , o <.l.l.l.l.l.l.l.Z.Z.Z.Z.l.l.l.v.l.l.l.x.l.l.l./ $X= ,.l.l.l.l.l.l.l.l.l.l.l.Z.l.l.8.O             . ..D.zX",
"hXd.s               : x.l.l.l.k.l.l.l.Z.l.Z.Z.Z.l.v.v.w.S v f v S *.G T w S v.Z.Z.l.l.l.l.l.l.Z.Z.l.l.l.x.3               3 N.aX",
"5Xm.@               V v.k.l.l.l.l.l.Z.l.l.Z.v.l.l.x.b i u i , I ] K + '.P v v.l.l.Z.l.l.Z.l.Z.l.l.l.Z.Z.l.O.              X N.5X",
">Xw..               :.l.k.l.l.l.l.l.l.Z.Z.Z.Z.l.Z.2.w = W ) w ~.{ q . _.T f z.l.Z.l.l.l.l.l.l.l.l.Z.Z.l.Z.8.. .           . ,.>X",
"R.;.                f.l.l.l.l.l.l.Z.v.v.l.Z.l.l.v.F  .'.#.>.1.>.S 4   o p w =.v.l.v.Z.l.l.l.l.l.l.l.Z.Z.l.v.@             . =.P.",
"U.X.              : k.l.l.l.l.l.l.Z.l.l.Z.Z.Z.l.v.G.u ; F x.Z.Z.Z.1.R Q L w t >.v.l.v.Z.l.k.l.l.Z.Z.Z.l.l.Z.s               X.K.",
"A.C               4 l.l.l.l.l.l.l.l.Z.Z.l.l.l.l.l.1.& e 5 H.C G / = L !.I i i R M.v.Z.v.k.l.l.l.l.l.l.Z.l.l.m               V u.",
"A.m               l l.l.l.l.l.l.Z.l.l.l.Z.l.l.l.x.=.I Y ] y w u +XX ; i !.!.[.{.@.v.l.v.l.l.l.l.Z.l.l.l.Z.l.C               z r.",
"N.z               m k.l.l.l.l.l.l.l.l.l.l.l.l.Z.=.& I 0 i e % y /.u ; w y i I = b c.l.l.k.l.l.l.l.l.Z.Z.Z.l.A               k q.",
"N.x               M l.l.l.l.l.l.l.l.l.l.l.l.l.j.H.i # R '.Q e O 0 |.gX0 w ; o = f V.l.l.l.l.k.l.l.l.l.l.l.l.A .             j q.",
"A.c               z c.l.k.l.l.l.l.l.l.l.l.l.l.5.Q i ` > +.0.e.w.,.+.v , =X(.] 9 f z.l.l.l.l.l.l.l.l.l.l.l.l.Z               n e.",
"F.C               3 l.l.l.l.l.l.l.Z.l.Z.l.l.Z.<.].| W 3.C.l.Z.Z.l.l.x.5.!  .{ Y $ M.l.l.l.l.l.k.l.l.l.l.l.l.m               V A.",
"Y.o.          .   : k.l.l.l.l.l.l.l.Z.l.l.l.l.a.u = J n ;.*.=.-.<.n.x.w.5 & 9 K & +.l.l.l.l.l.k.l.l.l.l.l.l.4 # +         . ..F.",
"T.;..   > R _.0X{ . f.l.v.l.l.l.l.l.l.l.l.l.l.v.f , 0 `.w I 0X8   X F H.`.u   + K [ C.l.l.l.k.l.l.l.l.l.l.c.$ { _.    - u   -.T.",
",X8.o ).fX=X%.~.+X. :.l.l.l.l.l.Z.l.l.l.l.l.l.*.8 o y Q 3X~. .' T , } { _., T /.' h M.l.l.l.l.l.l.l.l.l.l.9.. .X~ | q ` .X. 7.Q.",
"6Xd.@ ' {.    L 9X  C k.l.l.l.Z.Z.l.l.l.l.Z.>.p y  .K ] i w ; oX' K u e { X T &.i ~.e.Z.l.l.l.l.l.l.l.l.l.O.. tX} dX0 {.[ @ h.6X",
"aXB.3 ; iX` Q 0X^.  : x.l.l.l.l.l.l.l.l.v.j.5 I &  .G G % ; = ` K , + + } I e & p X q.l.Z.l.l.l.l.l.l.l.c.3 O | @XtXfXgXt s V.jX",
"xXD.X.  p &X&X' %   o <.v.v.l.l.l.l.l.l.l.;.9X=X(.G V.v.V.0.=.+.@.=.0.a.>.Q /.i 0 w M.v.Z.l.l.l.C.Z.v.v.8.. I P     0 W X ..F.xX",
"lXQ.w.  . . ( wXkX&X= d v.l.l.l.l.l.l.l.l.=.^.w ` S l.Z.c.z.V.v.x.Z.v.v.N./ } ^ `.5 1.l.l.l.l.v.Z.,./ v.m   &.xX0XR X   o 7.Q.lX",
"xXuXc.1 . ~ rXP * @X} . 6.k.Z.l.Z.v.v.Z.Z.=.; y . [ 1.>.B 7 @.a.=.e.0.a.J.oXY } | i w 1.v.c.v.c.1.(.H 9.X   . @X9X0XwXw 1 V.uXzX",
"lXlXA.O.. @X(   . _.(.  s l.Z.l.l.l.w.1.>.S # e & {.].Q 7 7 7 r 7 7 H ].{.& w  .D |  .% C >.2.G.H.$.e.z X t e u qXE I + *.F.lXlX",
"zXzX2Xf.@ { 8XT [.sXe i o *.l.l.l.A 6 # X $ i # ' {.W w p } ' ' y -X_.[.t i . #.5X(.{.{ ` *X&X.X/ e.>.  i lXxX0X9X-X; $ f.2XxXxX",
"zXzXjXN.C + %.-X(.e oXfXX % 8.v.V.N X       . D T [.= y u E *XP X w ( 3X; X g > q D _.H.I [.} b a.f.$     w {.fX/.;   C N.jXxXxX",
"xXxXxX,Xb.#     w wXeX&X    < j.>.v + . o o   o i h + o y _.^ 0 ; 0 ' &.5 7 o     o . ; > $ + b e.a + -       0 [.} # r.,XzXxXxX",
"xXxXxXhXA...  D sX] OX` J oXo 4 1.j < > : V 2.b b b r 6 f t D 6 $ - ; - X   . .   : O . . @ b 3.l   Q 0X;       o o X.u.jXzXxXxX",
"xXxXxXlX2Xg.< w p + dX| sXR p - s b.N.n.M.V.c.V.c.7.t.+.@.b 5 7 % = : 6 f f G =.,.M.e.e.w.M.j.l +   . H.0X>       1 M.4XzXzXxXxX",
"xXxXxXzXlXY.6.X . U kXwXe P rXR ; < 9.v.l.v.l.Z.v.l.l.l.l.l.N.0.V ,.0.m.l.k.l.v.l.l.k.l.l.f.s   /.iX%X .3XwX9   . 5.L.lXzXzXxXxX",
"xXxXzXxXxXaXA.o.. ` OX#   q - U iXP % *.x.C.v.Z.v.l.k.l.l.l.l.Z.v.v.l.l.k.l.l.l.Z.v.l.k.;.: q u e rX*X~.#XeX^.. @.r.pXxXxXzXxXxX",
"xXxXxXxXxXxX2Xg.l o o           [.kX/.+ d 7.v.v.v.l.l.Z.l.l.Z.l.Z.l.l.l.k.l.l.Z.v.v.9.l . ' fXrX=Xy rX}     o z M.4XxXxXxXxXxXxX",
"xXxXxXxXxXzXzXQ.j.4           u fXp {.*   X j <.c.l.l.l.Z.l.Z.l.l.l.l.l.l.l.v.x.8.c . . o fXr O &X_.0 eXT   d n.;XzXzXxXxXxXxXxX",
"xXxXxXxXxXzXzXlXT.M.1 .     % wX(       X +XQ + < A <.z.Z.s.b.j.f.m.h.v.z.6.+.1 o   .   . sXi   e sX  ; + 1 g.E.lXzXzXxXxXxXxXxX",
"xXxXxXxXxXxXxXzXlXT.b.4     /.OX        . E gXrX} . o . 1 j z n n z j 2 . . - ] 8X0XT     } qXe { 0X  o d n.E.jXxXxXxXxXxXxXxXxX",
"xXxXxXxXxXxXxXxXxXkXE.n.z . - =           0 gXL ' ~.wX].J   o o       I y . ( sXP T gX0 . . /.dX9Xu   c n.R.lXzXzXxXxXxXxXxXxXxX",
"xXxXxXxXxXxXxXxXxXzXlXQ.z.o.+             ~.].    8X{ } fXL gXiXeX|   rX0X+ # fX0   }.| .   o o . + o.e.W.lXzXxXxXxXxXxXxXxXxXxX",
"xXxXxXxXxXxXxXxXxXxXxXlX2XA.6.<         + fXw   - kX} i wX~ gXq w ; = sX#X .. ].^.  &X'     . o 1 6.A.5XzXzXxXxXxXxXxXxXxXxXxXxX",
"xXxXxXxXxXxXxXxXxXxXxXzXzXaXY.j.X.$     u {.    I wXoXlX{.0 zXfX`   t eX^.hXe t sX=X-X#   . # o.h.Y.aXlXzXzXxXxXxXxXxXxXxXxXxXxX",
"xXxXxXxXxXxXxXxXxXxXxXxXzXxXlX1XA.n.Z $         /./.+ gX- q rXO     R tX[.{.8XO ].~ O . @ Z e.i.2XlXzXxXxXxXxXxXxXxXxXxXxXxXxXxX",
"xXxXxXxXxXxXxXxXxXxXxXxXzXxXzXzXjX,XN.b.O.<   o # =   OXP t hX&X#X~ %.^.  o E + . o 1 ..e.u.>XjXxXlXzXxXxXxXxXxXxXxXxXxXxXxXxXxX",
"xXxXxXxXxXxXxXxXxXxXxXxXxXxXzXzXxXzXjX,XF.m.w...3 @   .   # L I Y t ; X   o @ 4 ..7.y.L.:XjXzXzXxXxXxXxXxXxXxXxXxXxXxXxXxXxXxXxX",
"xXxXxXxXxXxXxXxXxXxXxXxXxXxXzXxXxXxXxXxXlXuXW.u.e.r.5.-...M c k k c C X.-.8.m.r.K.>XuXlXzXxXxXxXxXxXxXxXxXxXxXxXxXxXxXxXxXxXxXxX",
"xXxXxXxXxXxXxXxXxXxXxXxXxXxXxXxXxXxXxXzXzXxXxXkXhX5X;XP.U.i.B.h.z.h.S.F.T.,X5XhXlXzXzXzXzXxXxXxXxXxXxXxXxXxXxXxXxXxXxXxXxXxXxXxX"
};
