/* XPM */
static char *a92e2a6a938d4fbebb0f4c4155dddaab0yzOT9A72jOuzVcx[] = {
/* columns rows colors chars-per-pixel */
"32 32 195 2 ",
"   c #040101",
".  c #090505",
"X  c #0B0807",
"o  c #0E0B0A",
"O  c #120E07",
"+  c #161004",
"@  c #1B1606",
"#  c #14110C",
"$  c #1B160A",
"%  c #130F10",
"&  c #161313",
"*  c #1A1617",
"=  c #1D1814",
"-  c #1E1B1B",
";  c #231E07",
":  c #241D0B",
">  c #201D17",
",  c #2D2706",
"<  c #272009",
"1  c #2D270B",
"2  c #322C0B",
"3  c #382F08",
"4  c #3F3707",
"5  c #393009",
"6  c #2D2712",
"7  c #27231A",
"8  c #22201F",
"9  c #2F2B1C",
"0  c #322D16",
"q  c #211E20",
"w  c #252323",
"e  c #292626",
"r  c #282827",
"t  c #2C2B2B",
"y  c #322D21",
"u  c #322F2F",
"i  c #3A3626",
"p  c #302E32",
"a  c #343232",
"s  c #3C3935",
"d  c #393739",
"f  c #3C3B3B",
"g  c #413609",
"h  c #443B0B",
"j  c #423B29",
"k  c #433F31",
"l  c #413E3D",
"z  c #4C4309",
"x  c #564A0A",
"c  c #574B0A",
"v  c #5C510D",
"b  c #484011",
"n  c #584A18",
"m  c #63560A",
"M  c #635513",
"N  c #756619",
"B  c #7B6B1B",
"V  c #7F7115",
"C  c #4D4722",
"Z  c #4C442A",
"A  c #534B2C",
"S  c #59522E",
"D  c #44413A",
"F  c #5D5534",
"G  c #685E39",
"H  c #7E742D",
"J  c #6D6636",
"K  c #7E713B",
"L  c #3F3F42",
"P  c #454444",
"I  c #494644",
"U  c #4D4A45",
"Y  c #4A4748",
"T  c #4C4B4B",
"R  c #54524B",
"E  c #555353",
"W  c #595755",
"Q  c #5B5857",
"!  c #595759",
"~  c #5C5A5A",
"^  c #615C53",
"/  c #615E5C",
"(  c #62625F",
")  c #7B7050",
"_  c #656362",
"`  c #686665",
"'  c #6A6967",
"]  c #6D6C6B",
"[  c #706D6D",
"{  c #787363",
"}  c #72716F",
"|  c #757372",
" . c #7D7B70",
".. c #7D7B7A",
"X. c #856F15",
"o. c #967E17",
"O. c #997F18",
"+. c #816E23",
"@. c #9B7F21",
"#. c #837839",
"$. c #817E7C",
"%. c #9A860F",
"&. c #9B8513",
"*. c #98861A",
"=. c #A38C0C",
"-. c #A99309",
";. c #B29B0A",
":. c #A48D15",
">. c #A99317",
",. c #A69219",
"<. c #B59D11",
"1. c #B59C1E",
"2. c #BEA70A",
"3. c #BBA416",
"4. c #998D36",
"5. c #AD9324",
"6. c #B49B24",
"7. c #B59F28",
"8. c #AB9B39",
"9. c #BEA624",
"0. c #BFA822",
"q. c #B3A129",
"w. c #BBAB34",
"e. c #C4AB0D",
"r. c #C9AE09",
"t. c #CDB40A",
"y. c #D0B40B",
"u. c #D6BA0C",
"i. c #C3AA13",
"p. c #C0A623",
"a. c #C7B221",
"s. c #CFB53E",
"d. c #D5BE37",
"f. c #D1B63E",
"g. c #D4BC3C",
"h. c #DFC60F",
"j. c #DBC01C",
"k. c #E5C807",
"l. c #EBCE06",
"z. c #E3C60C",
"x. c #E6C90A",
"c. c #EBCD0B",
"v. c #F3D407",
"b. c #F6D806",
"n. c #FEDD03",
"m. c #F3D40A",
"M. c #F6D809",
"N. c #FBDA09",
"B. c #E8C710",
"V. c #E8CB11",
"C. c #8E8047",
"Z. c #968D45",
"A. c #928B5E",
"S. c #B2A65D",
"D. c #86847B",
"F. c #C5AA48",
"G. c #CBB344",
"H. c #D1BC41",
"J. c #EBD56E",
"K. c #EEDA6B",
"L. c #F1DD6A",
"P. c #E5CD74",
"I. c #E9D371",
"U. c #EDD975",
"Y. c #F1DF7A",
"T. c #858483",
"R. c #898784",
"E. c #8D8C8B",
"W. c #928F8E",
"Q. c #959392",
"!. c #999694",
"~. c #9B9997",
"^. c #A29E9C",
"/. c #BDB484",
"(. c #B4B29E",
"). c #A5A4A3",
"_. c #ADACAB",
"`. c #B0AFAD",
"'. c #BBB9B7",
"]. c #EAD682",
"[. c #ECDEAC",
"{. c #ECDEB1",
"}. c #F3E7AA",
"|. c #D1CFCD",
" X c #F5EECF",
".X c #F7F2CE",
"XX c #F5EFDD",
"oX c #F7F1D0",
"OX c #F6F1DD",
"+X c #F9F3DB",
"@X c #F0EFED",
"#X c #FAF7EF",
"$X c #FBF9ED",
"%X c #FBFBF4",
"&X c #FFFFFF",
/* pixels */
"&X&X&X&X&X&X&X&X&X&X@X{.I.G.5.*.*.5.f.K.}.#X&X&X&X&X&X&X&X&X&X&X",
"&X&X&X&X&X&X&X&XOXJ.,.c r - l . % .   + c :.J.+X&X&X&X&X&X&X&X&X",
"&X&X&X&X&X&X%X].*.0 p ~.8 } ( E ' E.~ * E.P : &.U.%X&X&X&X&X&X&X",
"&X&X&X&X&X+Xg.h ~ ~ ( E & - T w P l u ( o ' ..` h s.XX&X&X&X&X&X",
"&X&X&X&X.X9.k T f T.$.& a . 9 5 5 <   E ` [ | X   : 7. X&X&X&X&X",
"&X&X&XOXp.# [ / o ! # h -.l.n.n.n.b.l.-.z l _ - ] $.o 9.+X&X&X&X",
"&X&X%XG.k $.T ..} 2 2.b.n.n.n.n.n.n.n.n.N.r.5 P $.d ~ Z g.%X&X&X",
"&X&X].h I R.Q d v b.n.*./.q.N.n.b.n.n.n.n.n.M.m l p ] P h Y.&X&X",
"&XXXo.q | T ] c N.v.<.3.K @X(.H t.N.n.n.n.n.n.n.m d t T.q %.+X&X",
"&XI.;     Q 1 v.n.n.n.u.q.i.3.S.( >.n.n.n.n.n.n.b.3 P ' _ 6 K.&X",
"#X>.s E e Y 2.n.n.n.n.n.N.n.n.b.w.R u.n.n.n.n.n.n.t.* ' #   >.$X",
"}.c   * [ g n.n.n.n.n.n.n.n.n.b.N.D.+.n.n.n.n.n.n.n.z       c }.",
"U.+       =.n.n.n.n.n.n.n.*.C i J R A n.n.n.n.n.n.n.;.      + J.",
"H.        k.n.n.n.n.n.n.0.E K #.A r s z.n.n.n.n.n.n.v..       F.",
"6.      @ n.n.n.n.n.n.n.j.q H 3.*.! f F b.n.n.n.n.n.n.<       5.",
":.      2 n.n.n.n.n.n.n.*.L L r ~ r ! _ 3.n.n.n.n.n.n.4       *.",
":.      , n.n.n.n.n.n.l.W s C.N K ~ ( r &.n.n.n.n.n.n.g       O.",
"q.      @ n.n.n.n.n.n.k.E G t.t.x.h.D T M n.n.n.n.n.n.,       1.",
"g.e R.!.U k.n.n.n.n.n.k.7 T [ | 8 { / f W v.n.n.n.n.v.U Q t d g.",
"L.y ..! E =.n.n.n.n.n.S U ^ r T L 8 T P L x.n.n.n.n.;.E '.).i L.",
"}.c f !.| h n.n.n.n.t.E.) M.x.i.e.V.4._ D c.n.n.c.j.c T.I q c }.",
"%X>.P ( E P 2.n.n.z.>.7 P Z.b N B 8. .W / F r.a.A.*.% P `.Q >.$X",
"&XL.j Q.E...1 m.;.& X 9 ..p R } Y !.w i { R.D.D.p.5 ! |.E.1 L.&X",
"&X+X%.# Q.).f c V & < 4 Z : U s - D = . O o # n v E X o P o.+X&X",
"&X&XY.h t |.' ( v V.m.N.v.t.3.X.n X.=.i.B.c.z.m ~ ] ^.o g ].&X&X",
"&X&X#Xd.y a o * _.A i.N.N.n.n.n.n.n.n.n.N.r.C R...).` i s.%X&X&X",
"&X&X&X+X9.O   I _ t u S -.l.N.m.v.M.c.-.z . | - Q.P 7 p.OX&X&X&X",
"&X&X&X&X.X9.$ W     7 '.! ~ 9 2 2 9 % } E.~ w ~.E.$ p.oX&X&X&X&X",
"&X&X&X&X&X+Xd.g     / a | ` !.'._ | $._ t W.    g s.OX&X&X&X&X&X",
"&X&X&X&X&X&X$XY.&.; a   E.).f '.> W._.T ).d : o.Y.%X&X&X&X&X&X&X",
"&X&X&X&X&X&X&X&X+XK.,.c $ t 7 W._ T   9 c @.P.XX&X&X&X&X&X&X&X&X",
"&X&X&X&X&X&X&X&X&X&X$X[.P.G.5.=.=.1.H.I.[.$X&X&X&X&X&X&X&X&X&X&X"
};
