/* XPM */
static char *_98f84102f424b54d6d5ddd79804eb267RS7F4CZFwW2XuLv[] = {
/* columns rows colors chars-per-pixel */
"16 16 149 2 ",
"   c #040000",
".  c #090505",
"X  c #271F10",
"o  c #221D15",
"O  c #322A07",
"+  c #31280A",
"@  c #3A3010",
"#  c #272424",
"$  c #2C2929",
"%  c #302D29",
"&  c #363223",
"*  c #3B382A",
"=  c #343131",
"-  c #3E3C38",
";  c #3E3C3C",
":  c #423E3E",
">  c #55460E",
",  c #584B0E",
"<  c #544510",
"1  c #594C10",
"2  c #594B15",
"3  c #645606",
"4  c #6C5D06",
"5  c #6C6016",
"6  c #736612",
"7  c #756818",
"8  c #7D6E19",
"9  c #534C28",
"0  c #44423E",
"q  c #4A4539",
"w  c #49453F",
"e  c #4F4B3B",
"r  c #504B34",
"t  c #5C583E",
"y  c #635520",
"u  c #6A5E21",
"i  c #625936",
"p  c #645D3E",
"a  c #6A612A",
"s  c #716727",
"d  c #796C22",
"f  c #7C6F23",
"g  c #776B2D",
"h  c #76692F",
"j  c #69623F",
"k  c #736530",
"l  c #7B6F34",
"z  c #7B6F36",
"x  c #7E703B",
"c  c #464543",
"v  c #484645",
"b  c #4A4948",
"n  c #4C4B4A",
"m  c #524F4C",
"M  c #555044",
"N  c #5A5647",
"B  c #5F5846",
"V  c #55534B",
"C  c #54524D",
"Z  c #56534D",
"A  c #5B5849",
"S  c #565350",
"D  c #555252",
"F  c #575655",
"G  c #585552",
"H  c #585656",
"J  c #5C5B5B",
"K  c #5F5E5D",
"L  c #605D5C",
"P  c #605F5D",
"I  c #65615D",
"U  c #767259",
"Y  c #676565",
"T  c #7A7776",
"R  c #7B7A79",
"E  c #7F7B7A",
"W  c #917D05",
"Q  c #917E05",
"!  c #887925",
"~  c #897C2C",
"^  c #837635",
"/  c #817437",
"(  c #877B30",
")  c #8A7E32",
"_  c #887C3E",
"`  c #958106",
"'  c #998506",
"]  c #97840A",
"[  c #93800D",
"{  c #9B8614",
"}  c #9B891B",
"|  c #B59C0C",
" . c #A8931D",
".. c #B49F1D",
"X. c #92842B",
"o. c #9D8B2B",
"O. c #938531",
"+. c #958739",
"@. c #91853E",
"#. c #A89623",
"$. c #A9972A",
"%. c #B5A023",
"&. c #BEA928",
"*. c #CDB30B",
"=. c #D1B70C",
"-. c #D5BB0A",
";. c #EECF06",
":. c #E6C70B",
">. c #E2C70D",
",. c #EACC0A",
"<. c #EBCC0B",
"1. c #EFCF08",
"2. c #EED004",
"3. c #F1D304",
"4. c #F3D405",
"5. c #F6D706",
"6. c #FDDB02",
"7. c #FFDD02",
"8. c #FADA06",
"9. c #FDDD05",
"0. c #FDDE04",
"q. c #DBC42E",
"w. c #8F8242",
"e. c #9F9049",
"r. c #A49741",
"t. c #A19346",
"y. c #A29349",
"u. c #A7994C",
"i. c #A79B51",
"p. c #BBAC59",
"a. c #BBAF6C",
"s. c #B9AC6E",
"d. c #BAAE6E",
"f. c #BFB16E",
"g. c #B6A872",
"h. c #BBAE70",
"j. c #BEB072",
"k. c #C0B36B",
"l. c #C1B46F",
"z. c #838281",
"x. c #92918F",
"c. c #FAF3CF",
"v. c #F6EED3",
"b. c #F6F0D2",
"n. c #F6F0D3",
"m. c #F9F2D0",
"M. c #FDFBF5",
"N. c #FDFCF6",
"B. c white",
/* pixels */
"B.B.B.B.b.h.x y 2 g d.v.B.B.B.B.",
"B.B.N.l.i K = b K 0 C j f.M.B.B.",
"B.N.y.G b * 6 ] ` 8 N : 0 e.N.B.",
"B.j.I H f -.q.9.8.7.;.7 b C l.B.",
"b.@ v d 8.=.p.i.%.9.7.9.6 F 9 c.",
"h.$ q ;.9.9.7.7.r.=.7.7.3.& . d.",
"h   3 7.9.9.#.i r } 9.7.7.4   k ",
",   W 7.7.7.s a t V ,.7.7.'   < ",
",   W 7.7.5.M  .$.c *.5.6.'   > ",
"_ E ~ 7.7.*.w H - b o.6.6.X.T w.",
"d.P M ;.5.) +.{ ..U z >.&.e J d.",
"c.i x.5 , X 0 D C o w B u m p c.",
"B.l.Z ; @.<.1.*.| -.:.( R m a.B.",
"B.N.t.% # A O.W Q ! e D K u.M.B.",
"B.B.N.k.O = z.x.P R Y + f.M.B.B.",
"B.B.B.B.m.s.x / ^ z g.v.B.B.B.B."
};
